<?xml version="1.0" encoding="UTF-8"?>
<!DOCTYPE svg PUBLIC "-//W3C//DTD SVG 1.1//EN" "http://www.w3.org/Graphics/SVG/1.1/DTD/svg11.dtd">
<!-- Creator: CorelDRAW -->
<svg xmlns="http://www.w3.org/2000/svg" xml:space="preserve" width="209mm" height="113mm" style="shape-rendering:geometricPrecision; text-rendering:geometricPrecision; image-rendering:optimizeQuality; fill-rule:evenodd; clip-rule:evenodd"
viewBox="0 0 209 113"
 xmlns:xlink="http://www.w3.org/1999/xlink">
 <defs>
  <style type="text/css">
   <![CDATA[
    .fil0 {fill:black;fill-rule:nonzero}
   ]]>
  </style>
 </defs>
 <g id="Layer_x0020_1">
  <metadata id="CorelCorpID_0Corel-Layer"/>
  <path id="Shalom.svg" class="fil0" d="M10.7634 85.3123l0 -28.5676c0,-2.8224 1.0672,-5.4642 3.2208,-7.9061l6.7845 -7.834 -3.3827 0c-5.1202,0 -7.6899,-2.2622 -7.6899,-6.7845 0,-3.3295 1.085,-6.1875 3.2386,-8.5938l1.3747 0c0.5968,2.4784 2.28,3.7089 5.0303,3.7089l14.7993 0c8.1234,0 13.3881,1.194 15.8122,3.5638 2.4252,2.352 3.6369,7.5088 3.6369,15.4149l0 36.9984 -42.8244 0 -0.0003 0zm13.6231 -44.3077l-6.5304 9.426c-1.5565,2.2611 -2.3343,5.0115 -2.3343,8.2135l0 15.8488 33.4528 0 0 -14.3111c0,-7.3448 -0.6703,-12.3749 -1.9903,-15.1064 -1.3204,-2.7139 -4.3235,-4.0708 -8.9921,-4.0708l-13.6054 0 -0.0003 0zm55.5432 45.3206l-1.1762 -0.3795 0 -36.6193c0,-2.5505 -0.3973,-4.4321 -1.1939,-5.6449 -0.7779,-1.2305 -2.9489,-2.117 -6.4772,-2.6772 -5.3729,-0.8865 -8.069,-3.5649 -8.069,-8.0691 0,-3.2385 1.0317,-5.8434 3.0756,-7.7797l1.43 0c0.2897,2.1891 1.7542,3.5091 4.3956,3.9795l4.4691 0.688c2.4607,0.3796 4.2703,1.3392 5.4277,2.858 1.1407,1.5199 1.7197,4.5422 1.7197,9.0642l0 37.9939c0,3.1488 -1.195,5.3375 -3.6014,6.5858l0 0.0003zm-9.7512 -69.1841c0.0355,-0.8332 0.2354,-1.5919 0.6334,-2.2434 0.3795,-0.6525 0.9043,-1.1762 1.5554,-1.5742 0.6511,-0.3806 1.3935,-0.579 2.2068,-0.579 1.0495,0 2.0638,0.3795 2.9855,1.1392 0.9408,0.7602 1.4112,1.8462 1.4112,3.2574 0,1.2117 -0.4161,2.2434 -1.266,3.1111 -0.851,0.8688 -1.9005,1.3037 -3.131,1.3037 -0.8134,-0.0366 -1.5554,-0.2542 -2.2069,-0.6526 -0.6511,-0.3795 -1.1762,-0.9042 -1.5553,-1.5553 -0.3984,-0.6512 -0.5979,-1.3935 -0.6334,-2.2069l0.0003 0zm58.6732 42.2994l-10.0771 11.2888c-2.4241,2.7326 -3.6546,5.3921 -3.6546,8.0147 0,0.4171 0.0543,1.0494 0.163,1.9004 0.1441,0.85 0.2162,1.4833 0.2162,1.9172 0,2.6062 -1.194,3.9085 -3.546,3.9085 -2.3699,0 -3.5638,-1.4656 -3.5638,-4.3967 0,-4.125 2.6229,-8.8835 7.8518,-14.2568l7.7431 -7.997c2.1902,-2.2611 3.2751,-5.1922 3.2751,-8.8103l0 -3.1665c0,-2.7682 -0.6511,-4.5955 -1.9903,-5.5008 -1.3203,-0.8865 -3.9251,-1.3381 -7.8152,-1.3381l-15.3606 0c-5.5185,0 -8.2689,-2.4607 -8.2689,-7.3636 0,-3.1487 0.6511,-6.7313 1.9548,-10.7108l1.5376 -4.5057c0.2531,-0.8133 0.3618,-1.4112 0.3618,-1.8085 0,-1.0317 -0.6334,-1.8461 -1.8994,-2.4972l-2.9677 -1.429c-1.5199,-0.7424 -2.2789,-1.773 -2.2789,-3.1299 0,-1.6467 0.6146,-3.3838 1.8451,-5.1923l1.3391 0c0.1619,1.1027 0.922,1.9171 2.2246,2.4419l2.0081 0.7967c2.2256,0.8865 3.3472,2.2434 3.3472,4.0884 0,0.3441 -0.5425,2.5151 -1.592,6.5137l-0.7413 2.695c-0.507,1.8817 -0.7423,3.2574 -0.7423,4.1439 0,1.3747 0.3617,2.4419 1.1037,3.1842 0.7413,0.7413 2.4607,1.1038 5.138,1.1038l17.2966 0c3.274,0 5.789,0.7956 7.5443,2.3876 1.7552,1.5919 2.6229,5.482 2.6229,11.6694l0 5.717c0,4.5954 -1.0306,8.0335 -3.0756,10.3312l0.0007 0.0008zm43.0559 40.925c1.5188,0.8499 2.2789,2.1348 2.2789,3.8708 0,0.851 -0.1984,1.592 -0.5779,2.2435 -0.3984,0.6703 -0.9054,1.1762 -1.5742,1.5741 -0.6511,0.3806 -1.3935,0.5791 -2.2434,0.5791 -0.7424,0 -1.4301,-0.163 -2.0624,-0.507 -0.6511,-0.3252 -1.195,-0.8499 -1.6466,-1.5376 -0.4704,-0.6866 -0.6881,-1.4656 -0.6881,-2.3521 0,-1.7364 0.7602,-3.0209 2.28,-3.8708l0 -3.9809 -8.4308 0 0 -5.4454 20.9324 0 0 5.4454 -8.2679 0 0 3.9809zm8.2004 -15.0532l-29.6174 0c-1.0317,-5.4454 -2.1536,-10.3124 -3.3472,-14.6359 -1.7009,-6.1697 -2.5505,-11.2178 -2.5505,-15.1075 0,-5.2644 0.7236,-10.0054 2.1891,-14.2568 -4.4321,-1.3026 -6.6401,-3.709 -6.6401,-7.2003 0,-3.3295 0.8865,-6.3138 2.6595,-8.9556l1.4301 0c0.343,1.3026 0.9042,2.2246 1.6466,2.7493 0.7413,0.5248 2.2977,1.0495 4.6676,1.5377 3.5282,0.7423 5.2831,3.4735 5.2831,8.2146 0,1.2127 -0.0909,2.1525 -0.3085,2.8579 -2.2612,0.7424 -4.3413,1.1216 -6.2595,1.1216 -0.8144,3.6369 -1.2128,7.7076 -1.2128,12.1952 0,5.7525 2.0446,12.6457 6.1519,20.6604l1.6289 -0.0543c4.8117,-8.8292 9.0454,-19.9373 12.7366,-33.325 -4.3967,-1.6289 -6.5857,-4.2159 -6.5857,-7.7442 0,-3.0387 0.9042,-5.7713 2.7138,-8.2135l1.429 0c0.4161,1.9714 1.4112,3.1654 2.9676,3.546l3.3284 0.7413c3.5826,0.8144 5.3552,3.2573 5.3552,7.3103 0,1.4468 -0.1441,2.7138 -0.4704,3.7622 -1.5919,0.507 -3.5637,0.7424 -5.9346,0.7424 -2.6595,12.122 -6.4949,23.2124 -11.5064,33.2351l16.8616 0c1.6289,-5.3729 6.1154,-13.207 13.4612,-23.5194 1.8629,-2.5875 2.8037,-4.7762 2.8037,-6.5858 0,-1.8273 -0.9586,-3.0756 -2.858,-3.7089l-0.688 -0.2163c-3.5283,-1.195 -5.3009,-3.2751 -5.3009,-6.2417 0,-3.366 1.0317,-6.3873 3.0756,-9.0642l1.3757 0c0.2531,1.701 1.157,2.8225 2.6961,3.3827l2.9843 1.0129c3.3472,1.1585 5.0304,3.5826 5.0304,7.255 0,3.1853 -1.6466,7.3281 -4.9395,12.4305 -3.2751,5.1192 -6.1697,10.7098 -8.685,16.8074 -2.514,6.0965 -4.3601,12.5193 -5.5718,19.268l0.0003 -0.0011zm7.9605 -68.1712c0.0365,-0.8332 0.2353,-1.5919 0.6333,-2.2434 0.3795,-0.6525 0.9043,-1.1762 1.5554,-1.5742 0.6511,-0.3806 1.3935,-0.579 2.2079,-0.579 1.0484,0 2.0624,0.3795 2.9844,1.1392 0.9408,0.7602 1.4112,1.8462 1.4112,3.2574 0,1.2117 -0.4161,2.2434 -1.266,3.1111 -0.851,0.8688 -1.9005,1.3037 -3.1299,1.3037 -0.8145,-0.0366 -1.5565,-0.2542 -2.208,-0.6526 -0.6511,-0.3795 -1.1762,-0.9042 -1.5553,-1.5553 -0.3984,-0.6512 -0.5968,-1.3935 -0.6334,-2.2069l0.0004 0z"/>
 </g>
</svg>
